<svg width="111" height="125" viewBox="0 0 111 125" fill="none" xmlns="http://www.w3.org/2000/svg">
<path d="M1.6479 107.561C1.6479 106.971 2.0696 106.581 2.72487 106.581C2.90004 106.581 3.15306 106.614 3.5034 106.692L3.74345 105.647C3.41257 105.537 3.02979 105.485 2.61457 105.485C1.97877 105.485 1.47273 105.667 1.08346 106.024C0.687704 106.38 0.493071 106.841 0.493071 107.412C0.493071 107.788 0.590388 108.145 0.797997 108.476H0V109.507H3.94457V108.476H1.97877C1.75819 108.21 1.6479 107.892 1.6479 107.561ZM5.19022 109.507H6.46183V101.365H5.19022V109.507ZM8.31084 109.014C8.31084 109.91 7.93455 110.241 6.92895 110.383L7.12358 111.48C8.81689 111.363 9.58245 110.487 9.58245 108.755V105.005H8.31084V109.014ZM11.5677 103.072C11.5028 103.675 12.3657 103.986 12.742 103.565C12.9885 103.305 12.9885 102.832 12.742 102.572C12.3592 102.176 11.5028 102.455 11.5677 103.072ZM11.6196 109.014C11.6196 109.91 11.2433 110.241 10.2377 110.383L10.4323 111.48C12.1257 111.363 12.8912 110.487 12.8912 108.755V105.005H11.6196V109.014ZM20.6441 107.107C20.6441 108.087 20.4365 108.366 19.5866 108.366H18.7562V107.081C18.7562 105.79 17.9582 104.882 16.5503 104.882C15.8496 104.882 15.2657 105.122 14.8246 105.582C14.3834 106.056 14.1563 106.627 14.1563 107.308C14.1563 108.645 15.0841 109.507 16.7644 109.507H17.4521C17.3094 110.176 16.4854 110.455 14.9738 110.338L15.0516 111.48C15.2593 111.493 15.4733 111.499 15.6745 111.499C17.517 111.499 18.5291 110.831 18.7237 109.507H19.5866C21.1891 109.507 21.9092 108.937 21.9092 107.373V101.365H20.6376V107.107H20.6441ZM17.491 108.366H16.8228C15.921 108.366 15.4669 107.976 15.4669 107.211C15.4669 106.53 15.8951 106.056 16.5114 106.056C17.1667 106.056 17.491 106.484 17.491 107.341V108.366ZM23.3365 109.507H24.6081V101.365H23.3365V109.507ZM46.8612 110.591C46.7315 110.721 46.6666 110.883 46.6666 111.084C46.6666 111.473 46.9585 111.765 47.3543 111.765C47.75 111.765 48.0225 111.473 48.0225 111.084C48.0939 110.461 47.2635 110.143 46.8612 110.591ZM53.7966 104.888C53.0635 104.888 52.4602 105.102 51.9866 105.524C51.513 105.946 51.2729 106.491 51.2729 107.159C51.2729 107.62 51.3832 108.035 51.5973 108.366H49.8132C49.9948 106.199 49.093 104.888 46.9261 104.888C46.4006 104.888 45.901 104.973 45.4534 105.135L45.7323 106.212C46.1281 106.114 46.4979 106.062 46.8223 106.062C48.5026 106.062 48.6843 107.418 48.5221 108.366H45.1809C44.4153 108.366 44.0261 108.002 44.0261 107.276V101.365H42.7545V107.107C42.7545 108.087 42.5533 108.366 41.7034 108.366C40.9379 108.366 40.5551 107.996 40.5551 107.276V105.005H39.2835V107.269C39.2835 108.054 39.0889 108.366 38.4141 108.366C37.8302 108.366 37.5448 108.126 37.5448 107.645V105.79H36.2667V107.295C36.2667 108.08 36.0266 108.359 35.3714 108.359C34.8134 108.359 34.5344 108.119 34.5344 107.639V105.783H33.2628V108.392C33.2628 109.696 32.6724 110.215 31.5501 110.215C30.4731 110.215 29.8373 109.644 29.8373 108.599C29.8373 108.177 29.9476 107.704 30.1487 107.165L29.0393 106.776C28.7149 107.496 28.5527 108.158 28.5527 108.768C28.5527 109.488 28.8122 110.104 29.3183 110.623C29.8243 111.129 30.5574 111.389 31.5176 111.389C33.1461 111.389 34.262 110.688 34.489 109.28C34.755 109.443 35.1054 109.52 35.5336 109.52C36.2148 109.52 36.7273 109.345 37.0841 109.014C37.441 109.345 37.9211 109.507 38.5374 109.507C39.2381 109.507 39.7766 109.293 40.1334 108.872C40.4318 109.293 40.9638 109.507 41.7034 109.507C42.6247 109.507 43.2605 109.293 43.6044 108.872C43.9028 109.293 44.4348 109.507 45.1744 109.507H53.4333C55.5678 109.507 56.1063 108.255 56.1063 107.159C56.1063 106.523 55.8987 105.985 55.5029 105.543C55.1007 105.102 54.5298 104.888 53.7966 104.888ZM53.5826 108.366H52.9273C52.6808 108.022 52.564 107.652 52.564 107.276C52.564 106.497 53.0376 106.056 53.7253 106.056C54.4065 106.056 54.8347 106.51 54.8347 107.198C54.8347 107.983 54.413 108.366 53.5826 108.366ZM73.9023 110.383C73.513 110.383 73.2146 110.682 73.2146 111.084C73.2146 111.473 73.5195 111.765 73.9023 111.765C74.298 111.765 74.5835 111.473 74.5835 111.084C74.5835 110.682 74.298 110.383 73.9023 110.383ZM75.6669 110.383C75.2712 110.383 74.9663 110.682 74.9663 111.084C74.9663 111.473 75.2712 111.765 75.6669 111.765C76.0432 111.765 76.3352 111.473 76.3352 111.084C76.3352 110.682 76.0432 110.383 75.6669 110.383ZM78.4372 102.52C78.4372 102.027 79.0536 102.001 79.4623 102.111L79.605 101.378C79.339 101.326 79.099 101.294 78.8914 101.294C78.1453 101.294 77.6522 101.722 77.6522 102.358C77.6522 102.572 77.7041 102.78 77.8144 102.974H77.3603V103.727H79.7283V102.974H78.5864C78.4891 102.812 78.4372 102.663 78.4372 102.52ZM78.0804 107.107C78.0804 108.067 77.8339 108.366 76.971 108.366H76.7569C75.9913 108.366 75.6021 108.002 75.6021 107.276V105.005H74.3305V107.107C74.3305 108.067 74.0839 108.366 73.2211 108.366H73.007C72.2414 108.366 71.8521 108.002 71.8521 107.276V105.005H70.5805V107.269C70.5805 108.054 70.3859 108.366 69.7112 108.366C69.1273 108.366 68.8418 108.126 68.8418 107.645V105.79H67.5702V107.295C67.5702 108.08 67.3301 108.359 66.6749 108.359C66.1169 108.359 65.838 108.119 65.838 107.639V105.783H64.5664V108.392C64.5664 109.696 63.976 110.215 62.8536 110.215C61.7766 110.215 61.1408 109.644 61.1408 108.599C61.1408 108.177 61.2511 107.704 61.4522 107.165L60.3428 106.776C60.0184 107.496 59.8562 108.158 59.8562 108.768C59.8562 109.488 60.1157 110.104 60.6218 110.623C61.1278 111.129 61.861 111.389 62.8211 111.389C64.4496 111.389 65.5655 110.688 65.7925 109.28C66.0585 109.443 66.4089 109.52 66.8371 109.52C67.5183 109.52 68.0308 109.345 68.3877 109.014C68.7445 109.345 69.2246 109.507 69.8409 109.507C70.5416 109.507 71.0801 109.293 71.4369 108.872C71.7354 109.293 72.2673 109.507 73.007 109.507H73.234C74.1683 109.507 74.817 109.293 75.1739 108.859C75.4658 109.287 75.9913 109.507 76.7569 109.507H76.984C78.6513 109.507 79.352 108.904 79.352 107.276V105.005H78.0804V107.107ZM81.3438 109.014C81.3438 109.91 80.9675 110.241 79.9619 110.383L80.1565 111.48C81.8498 111.363 82.6154 110.487 82.6154 108.755V105.005H81.3438V109.014ZM90.3877 104.914C90.6343 104.655 90.6343 104.181 90.3877 103.921C90.0114 103.526 89.1485 103.805 89.2134 104.415C89.1485 105.018 90.0114 105.329 90.3877 104.914ZM91.5231 108.398C91.5231 109.702 90.9327 110.221 89.8103 110.221C88.7333 110.221 88.0975 109.65 88.0975 108.606C88.0975 108.184 88.2078 107.71 88.4089 107.172L87.2995 106.783C86.9751 107.503 86.8129 108.165 86.8129 108.774C86.8129 109.494 87.0725 110.111 87.5785 110.63C88.0846 111.136 88.8177 111.395 89.7779 111.395C91.6204 111.395 92.7947 110.494 92.7947 108.722V105.79H91.5231V108.398ZM94.209 109.507H95.4806V101.365H94.209V109.507ZM104.44 110.383C104.044 110.383 103.74 110.682 103.74 111.084C103.74 111.473 104.044 111.765 104.44 111.765C104.817 111.765 105.108 111.473 105.108 111.084C105.108 110.682 104.817 110.383 104.44 110.383ZM102.676 110.383C102.286 110.383 101.988 110.682 101.988 111.084C101.988 111.473 102.293 111.765 102.676 111.765C103.071 111.765 103.357 111.473 103.357 111.084C103.357 110.682 103.071 110.383 102.676 110.383ZM104.589 107.282V105.011H103.318V107.113C103.318 108.074 103.071 108.372 102.208 108.372H101.164V107.088C101.164 105.796 100.366 104.888 98.9581 104.888C98.2574 104.888 97.6735 105.128 97.2323 105.589C96.7911 106.062 96.5641 106.633 96.5641 107.315C96.5641 108.651 97.4918 109.514 99.1722 109.514H99.8599C99.7171 110.182 98.8932 110.461 97.3815 110.344L97.4594 111.486C97.667 111.499 97.8811 111.506 98.0822 111.506C99.9247 111.506 100.937 110.837 101.131 109.514H102.215C103.895 109.507 104.589 108.911 104.589 107.282ZM99.8988 108.366H99.2306C98.3288 108.366 97.8746 107.976 97.8746 107.211C97.8746 106.53 98.3028 106.056 98.9191 106.056C99.5744 106.056 99.8988 106.484 99.8988 107.341V108.366ZM109.838 106.549C109.494 105.913 108.845 105.277 107.898 104.661L107.133 105.686C107.639 105.998 108.093 106.4 108.489 106.88C108.878 107.367 109.073 107.847 109.073 108.346V108.366H105.809V109.507H110.344V108.787C110.344 107.937 110.169 107.191 109.838 106.549Z" fill="#4E9FBF"/>
<path d="M2.95194 117.279H0V124.87H1.35595V122.359H2.89355C4.43115 122.359 5.50812 121.334 5.50812 119.816C5.50812 118.305 4.46359 117.279 2.95194 117.279ZM2.58862 121.269H1.35595V118.389H2.59511C3.56828 118.389 4.13271 118.908 4.13271 119.823C4.13271 120.744 3.56179 121.269 2.58862 121.269ZM7.83075 120.27H7.8048V119.297H6.54617V124.877H7.8567V121.633C7.8567 120.848 8.30435 120.368 9.04396 120.368C9.26455 120.368 9.46567 120.4 9.57596 120.439V119.252C9.47864 119.232 9.33591 119.2 9.16723 119.2C8.51196 119.2 8.02538 119.589 7.83075 120.27ZM11.12 117.137C10.7178 117.137 10.3934 117.455 10.3934 117.85C10.3934 118.246 10.7113 118.564 11.12 118.564C11.5288 118.564 11.8532 118.246 11.8532 117.85C11.8532 117.455 11.5288 117.137 11.12 117.137ZM10.4648 124.87H11.7753V119.291H10.4648V124.87ZM19.2622 119.187C18.4577 119.187 17.796 119.622 17.5235 120.309H17.491C17.2834 119.596 16.7255 119.187 15.934 119.187C15.1749 119.187 14.5845 119.615 14.3445 120.257H14.3185V119.291H13.0599V124.87H14.3704V121.458C14.3704 120.783 14.8116 120.296 15.4409 120.296C16.0508 120.296 16.4271 120.679 16.4271 121.302V124.877H17.6987V121.432C17.6987 120.763 18.1333 120.303 18.7627 120.303C19.4049 120.303 19.7618 120.692 19.7618 121.373V124.877H21.0723V121.049C21.0788 119.933 20.3586 119.187 19.2622 119.187ZM24.7055 119.18C23.0965 119.18 22.0714 120.342 22.0714 122.106C22.0714 123.884 23.0835 124.987 24.7574 124.987C26.0809 124.987 27.054 124.26 27.2227 123.209H25.9965C25.8538 123.67 25.3932 123.975 24.7833 123.975C23.9269 123.975 23.3755 123.378 23.3755 122.483V122.405H27.2746V121.97C27.2811 120.277 26.2885 119.18 24.7055 119.18ZM23.3949 121.535C23.4468 120.757 23.9788 120.192 24.7184 120.192C25.471 120.192 25.9771 120.744 26.003 121.535H23.3949ZM34.7161 123.008H34.6772L32.3481 117.279H30.7715V124.87H31.9977V119.479H32.0366L34.2295 124.805H35.1573L37.3501 119.479H37.3891V124.87H38.6088V117.279H37.0452L34.7161 123.008ZM40.0361 124.87H41.3466V119.291H40.0361V124.87ZM40.6848 117.137C40.2826 117.137 39.9582 117.455 39.9582 117.85C39.9582 118.246 40.2761 118.564 40.6848 118.564C41.0936 118.564 41.418 118.246 41.418 117.85C41.418 117.455 41.1001 117.137 40.6848 117.137ZM45.661 119.187C44.8046 119.187 44.2077 119.589 43.9093 120.251H43.8833V119.291H42.6247V124.87H43.9352V121.639C43.9352 120.841 44.4153 120.296 45.1679 120.296C45.914 120.296 46.2838 120.737 46.2838 121.529V124.87H47.5943V121.263C47.5943 119.978 46.8937 119.187 45.661 119.187ZM48.853 124.87H50.1635V119.291H48.853V124.87ZM49.5082 117.137C49.106 117.137 48.7816 117.455 48.7816 117.85C48.7816 118.246 49.0995 118.564 49.5082 118.564C49.917 118.564 50.2413 118.246 50.2413 117.85C50.2413 117.455 49.917 117.137 49.5082 117.137ZM54.413 121.698L53.4204 121.477C52.8754 121.347 52.6224 121.133 52.6224 120.822C52.6224 120.42 52.9986 120.141 53.5826 120.141C54.1924 120.141 54.5752 120.433 54.6206 120.913H55.8403C55.8079 119.881 54.919 119.174 53.6085 119.174C52.2526 119.174 51.3508 119.868 51.3508 120.887C51.3508 121.691 51.8698 122.23 52.9013 122.47L53.9199 122.71C54.4649 122.846 54.666 123.021 54.666 123.346C54.666 123.761 54.2703 124.02 53.6345 124.02C52.9727 124.02 52.5769 123.735 52.4991 123.229H51.208C51.2989 124.286 52.1877 124.98 53.589 124.98C54.9969 124.98 55.9701 124.267 55.9701 123.216C55.9701 122.392 55.5289 121.964 54.413 121.698ZM58.6625 117.987H57.352V119.291H56.554V120.303H57.352V123.384C57.352 124.468 57.8256 124.896 59.0323 124.896C59.3113 124.896 59.5708 124.877 59.7135 124.844V123.845C59.6292 123.858 59.4605 123.871 59.3372 123.871C58.8766 123.871 58.6625 123.663 58.6625 123.203V120.303H59.7135V119.291H58.6625V117.987ZM63.0807 119.18C61.4717 119.18 60.4466 120.342 60.4466 122.106C60.4466 123.884 61.4587 124.987 63.1326 124.987C64.4561 124.987 65.4292 124.26 65.5979 123.209H64.3717C64.229 123.67 63.7684 123.975 63.1585 123.975C62.3021 123.975 61.7507 123.378 61.7507 122.483V122.405H65.6498V121.97C65.6498 120.277 64.6637 119.18 63.0807 119.18ZM61.7636 121.535C61.8155 120.757 62.3475 120.192 63.0871 120.192C63.8397 120.192 64.3458 120.744 64.3717 121.535H61.7636ZM67.9595 120.27H67.9335V119.297H66.6749V124.877H67.9854V121.633C67.9854 120.848 68.4331 120.368 69.1727 120.368C69.3933 120.368 69.5944 120.4 69.7047 120.439V119.252C69.6074 119.232 69.4646 119.2 69.2959 119.2C68.6342 119.2 68.1476 119.589 67.9595 120.27ZM70.8011 120.134H71.8132L72.5269 117.279H71.2423L70.8011 120.134ZM76.1211 121.698L75.1285 121.477C74.5835 121.347 74.3305 121.133 74.3305 120.822C74.3305 120.42 74.7068 120.141 75.2907 120.141C75.9005 120.141 76.2833 120.433 76.3287 120.913H77.5484C77.516 119.881 76.6271 119.174 75.3166 119.174C73.9607 119.174 73.0589 119.868 73.0589 120.887C73.0589 121.691 73.5779 122.23 74.6094 122.47L75.628 122.71C76.173 122.846 76.3741 123.021 76.3741 123.346C76.3741 123.761 75.9784 124.02 75.3426 124.02C74.6808 124.02 74.285 123.735 74.2072 123.229H72.9161C73.007 124.286 73.8958 124.98 75.2971 124.98C76.705 124.98 77.6782 124.267 77.6782 123.216C77.6717 122.392 77.237 121.964 76.1211 121.698ZM84.5098 117.15C82.2974 117.15 80.9026 118.661 80.9026 121.075C80.9026 123.488 82.291 124.993 84.5098 124.993C86.7221 124.993 88.1105 123.488 88.1105 121.075C88.1105 118.661 86.7221 117.15 84.5098 117.15ZM84.5098 123.839C83.1538 123.839 82.2975 122.768 82.2975 121.075C82.2975 119.381 83.1538 118.305 84.5098 118.305C85.8592 118.305 86.7221 119.375 86.7221 121.075C86.7286 122.768 85.8657 123.839 84.5098 123.839ZM89.6027 118.817V119.31H88.8371V120.303H89.6027V124.87H90.9132V120.303H92.0097V119.31H90.8938V118.849C90.8938 118.395 91.1208 118.162 91.6204 118.162C91.7696 118.162 91.9253 118.175 92.0356 118.194V117.279C91.8734 117.247 91.588 117.221 91.3284 117.221C90.1152 117.221 89.6027 117.734 89.6027 118.817ZM93.4175 118.817V119.31H92.6519V120.303H93.4175V124.87H94.728V120.303H95.8245V119.31H94.7086V118.849C94.7086 118.395 94.9356 118.162 95.4352 118.162C95.5844 118.162 95.7401 118.175 95.8504 118.194V117.279C95.6882 117.247 95.4028 117.221 95.1432 117.221C93.93 117.221 93.4175 117.734 93.4175 118.817ZM96.895 124.87H98.2055V119.291H96.895V124.87ZM97.5502 117.137C97.148 117.137 96.8236 117.455 96.8236 117.85C96.8236 118.246 97.1415 118.564 97.5502 118.564C97.9589 118.564 98.2833 118.246 98.2833 117.85C98.2833 117.455 97.9589 117.137 97.5502 117.137ZM101.955 123.923C101.125 123.923 100.586 123.248 100.586 122.08C100.586 120.932 101.118 120.238 101.942 120.238C102.643 120.238 103.058 120.686 103.162 121.282H104.401C104.31 120.108 103.402 119.174 101.929 119.174C100.308 119.174 99.2565 120.296 99.2565 122.08C99.2565 123.89 100.308 124.98 101.942 124.98C103.344 124.98 104.304 124.156 104.408 122.911H103.169C103.052 123.547 102.624 123.923 101.955 123.923ZM110.344 122.398V121.97C110.344 120.277 109.358 119.174 107.768 119.174C106.16 119.174 105.134 120.335 105.134 122.1C105.134 123.878 106.147 124.98 107.82 124.98C109.144 124.98 110.117 124.254 110.286 123.203H109.06C108.917 123.663 108.456 123.968 107.846 123.968C106.99 123.968 106.438 123.371 106.438 122.476V122.398H110.344ZM107.775 120.192C108.528 120.192 109.034 120.744 109.06 121.535H106.458C106.51 120.757 107.035 120.192 107.775 120.192Z" fill="#4E9FBF"/>
<path d="M40.7303 52.1552C39.8998 52.1552 39.2186 52.83 39.2186 53.6669V57.7607H42.2354V53.6669C42.2419 52.83 41.5672 52.1552 40.7303 52.1552ZM44.8241 59.0517C44.4672 59.0517 44.1753 59.3437 44.1753 59.7005C44.1753 60.0574 44.4672 60.3493 44.8241 60.3493C45.1809 60.3493 45.4728 60.0574 45.4728 59.7005C45.4728 59.3437 45.1809 59.0517 44.8241 59.0517ZM43.9677 48.7037H42.6766V50.4295H43.9677V48.7037ZM40.7303 59.0517C40.3734 59.0517 40.0815 59.3437 40.0815 59.7005C40.0815 60.0574 40.3734 60.3493 40.7303 60.3493C41.0871 60.3493 41.379 60.0574 41.379 59.7005C41.379 59.3437 41.0871 59.0517 40.7303 59.0517ZM40.9444 48.7037H39.6533V50.4295H40.9444V48.7037ZM61.2057 80.1695H68.1022V78.4437H61.2057V80.1695ZM44.1363 31.7252L43.3448 30.9337V29.3118H42.8583V31.1348L43.7925 32.0691L44.1363 31.7252ZM38.7904 35.3454H47.4127V26.7232H38.7904V35.3454ZM43.1048 28.2348C44.6489 28.2348 45.9075 29.4869 45.9075 31.0375C45.9075 32.5881 44.6554 33.8402 43.1048 33.8402C41.5542 33.8402 40.3021 32.5881 40.3021 31.0375C40.3021 29.4869 41.5542 28.2348 43.1048 28.2348ZM37.9275 15.0841L37.0647 14.2212L36.2018 15.0841V19.8266L37.0647 20.6895L37.9275 19.8266V15.0841ZM43.1048 19.8266V15.0841L42.2419 14.2212L41.379 15.0841V19.8266L42.2419 20.6895L43.1048 19.8266ZM50.0013 48.7037H48.7102V50.4295H50.0013V48.7037ZM48.9243 59.0517C48.5675 59.0517 48.2756 59.3437 48.2756 59.7005C48.2756 60.0574 48.5675 60.3493 48.9243 60.3493C49.2812 60.3493 49.5731 60.0574 49.5731 59.7005C49.5731 59.3437 49.2812 59.0517 48.9243 59.0517ZM45.6869 50.4295H46.978V48.7037H45.6869V50.4295ZM50.4295 53.6604C50.4295 52.83 49.7548 52.1488 48.9178 52.1488C48.0809 52.1488 47.4062 52.8235 47.4062 53.6604V57.7542H50.423V53.6604H50.4295ZM44.8241 52.1552C43.9936 52.1552 43.3124 52.83 43.3124 53.6669V57.7607H46.3292V53.6669C46.3357 52.83 45.661 52.1552 44.8241 52.1552ZM84.7239 92.8596V63.2104L82.7581 62.2243L81.0323 63.0871L79.3066 62.2243L77.5808 63.0871L75.8551 62.2243L74.1293 63.0871L72.4036 62.2243L70.6778 63.0871L68.9521 62.2243L67.2263 63.0871L65.5006 62.2243L63.7749 63.0871L62.0491 62.2243L60.3234 63.0871L58.5976 62.2243L56.8719 63.0871L55.1461 62.2243L53.6669 62.9639V42.5209L51.7011 41.5347L49.9753 42.3976L48.4961 41.658V38.1741H50.2219V23.1224L48.2561 22.1363L46.5303 22.9992L45.0511 22.2596V12.2554H44.1753C44.052 7.62963 40.5421 5.05398 39.8804 4.60632V4.0873C40.1399 3.98998 40.328 3.73696 40.328 3.44501C40.328 3.15306 40.1399 2.90004 39.8804 2.80272V2.19287C40.1399 2.09555 40.328 1.84253 40.328 1.55058C40.328 1.25863 40.1593 1.00561 39.8998 0.908289V0H39.4132V0.908289C39.1537 1.00561 38.9656 1.25863 38.9656 1.55058C38.9656 1.84253 39.1537 2.09555 39.4132 2.19287V2.80272C39.1537 2.90004 38.9656 3.15306 38.9656 3.44501C38.9656 3.73696 39.1537 3.98998 39.4132 4.0873V4.60632C38.745 5.05398 35.2416 7.62314 35.1183 12.2554H34.2425V23.0316H29.0652V38.1741H30.791V42.4301H25.6202V92.8596H0V93.3461H110.344V92.8596H84.7239ZM46.3098 23.4274V25.0039H46.7963V23.4274L48.2756 22.6878L49.7548 23.4274V37.6875H36.4483V23.4274L37.9275 22.6878L39.4068 23.4274V25.0039H39.8933V23.4274L41.3726 22.6878L42.8518 23.4274V25.0039H43.3384V23.4274L44.8176 22.6878L46.3098 23.4274ZM44.584 12.742V22.2596L43.1048 22.9992L41.379 22.1363L39.8998 22.8759V12.742H44.584ZM39.6533 5.03452C40.341 5.50164 43.5849 7.94104 43.7082 12.2619H35.5984C35.7217 7.93455 38.9721 5.49515 39.6533 5.03452ZM29.5518 37.6875V23.5182H35.9618V37.6875H29.5518ZM35.9618 38.1741V42.4301H31.2776V38.1741H35.9618ZM35.9618 92.8596H26.1003V42.9166H35.9618V92.8596ZM34.7226 23.0316V12.742H39.4068V22.8824L37.9275 22.1428L36.1499 23.0316H34.7226ZM36.4483 38.1741H48.029V41.658L46.5498 42.3976L44.8241 41.5347L43.0983 42.3976L41.3726 41.5347L39.6468 42.3976L37.9211 41.5347L36.4418 42.2744V38.1741H36.4483ZM46.3098 92.8596H36.4483V42.8193L37.9275 42.0797L39.4132 42.8193V45.6869H39.8998V42.8193L41.379 42.0797L42.8583 42.8193V45.6869H43.3448V42.8193L44.8241 42.0797L46.3098 42.8193V45.6869H46.7963V42.8193L48.2756 42.0797L49.7548 42.8193V45.6869H50.2413V42.8193L51.7206 42.0797L53.2063 42.8193V62.9639L51.7271 62.2243L50.0013 63.0871L48.2756 62.2243L46.3098 63.2104V92.8596ZM58.0072 92.8596C58.1175 84.14 64.0344 82.3104 64.6572 82.1482C64.9556 82.2261 66.4673 82.6802 67.9595 84.0621C70.1069 86.0539 71.2488 89.0902 71.3007 92.8596H58.0072ZM76.4779 92.8596H71.7873C71.6705 83.2057 64.7221 81.6552 64.6507 81.6552L64.5988 81.6617C64.5274 81.6746 62.7887 82.0704 61.037 83.6858C59.454 85.1456 57.579 87.9224 57.5141 92.8596H52.8235V72.1311L54.3027 71.3915L55.7819 72.1311V74.9987H56.2685V72.1311L57.7477 71.3915L59.2269 72.1311V74.9987H59.7135V72.1311L61.1927 71.3915L62.6719 72.1311V74.9987H63.1585V72.1311L64.6377 71.3915L66.1169 72.1311V74.9987H66.6035V72.1311L68.0827 71.3915L69.562 72.1311V74.9987H70.068V72.1311L71.5472 71.3915L73.0264 72.1311V74.9987H73.513V72.1311L74.9922 71.3915L76.4714 72.1311V92.8596H76.4779ZM84.2373 92.8596H76.9645V71.8327L74.9987 70.8465L73.273 71.7094L71.5472 70.8465L69.8215 71.7094L68.0957 70.8465L66.37 71.7094L64.6442 70.8465L62.9314 71.7094L61.2057 70.8465L59.4799 71.7094L57.7542 70.8465L56.0284 71.7094L54.3027 70.8465L52.3369 71.8327V92.8596H46.7899V63.5089L48.2691 62.7692L49.7483 63.5089V66.3764H50.2349V63.5089L51.7141 62.7692L53.1933 63.5089V66.3764H53.6799V63.5089L55.1591 62.7692L56.6383 63.5089V66.3764H57.1249V63.5089L58.6041 62.7692L60.0833 63.5089V66.3764H60.5699V63.5089L62.0491 62.7692L63.5283 63.5089V66.3764H64.0149V63.5089L65.4941 62.7692L66.9733 63.5089V66.3764H67.4599V63.5089L68.9391 62.7692L70.4183 63.5089V66.3764H70.9049V63.5089L72.3841 62.7692L73.8633 63.5089V66.3764H74.3499V63.5089L75.8291 62.7692L77.3084 63.5089V66.3764H77.7949V63.5089L79.2742 62.7692L80.7534 63.5089V66.3764H81.2399V63.5089L82.7192 62.7692L84.1984 63.5089V92.8596H84.2373Z" fill="#4E9FBF"/>
</svg>
