<svg width="1211" height="1016" viewBox="0 0 1211 1016" fill="none" xmlns="http://www.w3.org/2000/svg">
<path opacity="0.3" d="M442.589 575.491C433.422 575.491 425.903 582.937 425.903 592.171V637.343H459.203V592.171C459.275 582.937 451.755 575.491 442.589 575.491ZM487.777 651.589C483.838 651.589 480.615 654.81 480.615 658.748C480.615 662.685 483.838 665.906 487.777 665.906C491.715 665.906 494.938 662.685 494.938 658.748C494.938 654.81 491.715 651.589 487.777 651.589ZM478.252 537.407H464.001V556.449H478.252V537.407ZM442.589 651.589C438.65 651.589 435.427 654.81 435.427 658.748C435.427 662.685 438.65 665.906 442.589 665.906C446.527 665.906 449.75 662.685 449.75 658.748C449.75 654.81 446.527 651.589 442.589 651.589ZM444.952 537.407H430.701V556.449H444.952V537.407ZM668.6 884.606H744.725V865.564H668.6V884.606ZM480.186 350.063L471.449 341.329V323.432H466.078V343.548L476.39 353.857L480.186 350.063ZM421.176 390.008H516.35V294.869H421.176V390.008ZM468.728 311.549C485.772 311.549 499.665 325.365 499.665 342.474C499.665 359.584 485.843 373.4 468.728 373.4C451.612 373.4 437.791 359.584 437.791 342.474C437.791 325.365 451.684 311.549 468.728 311.549ZM411.652 166.441L402.127 156.92L392.603 166.441V218.771L402.127 228.292L411.652 218.771V166.441ZM468.728 218.771V166.441L459.203 156.92L449.678 166.441V218.771L459.203 228.292L468.728 218.771ZM544.853 537.407H530.602V556.449H544.853V537.407ZM532.965 651.589C529.026 651.589 525.803 654.81 525.803 658.748C525.803 662.685 529.026 665.906 532.965 665.906C536.904 665.906 540.126 662.685 540.126 658.748C540.126 654.81 536.904 651.589 532.965 651.589ZM497.301 556.449H511.552V537.407H497.301V556.449ZM549.651 592.1C549.651 582.937 542.203 575.42 532.965 575.42C523.727 575.42 516.279 582.865 516.279 592.1V637.271H549.579V592.1H549.651ZM487.777 575.491C478.61 575.491 471.091 582.937 471.091 592.171V637.343H504.391V592.171C504.463 582.937 497.015 575.491 487.777 575.491ZM928.199 1024.63V697.476L906.5 686.595L887.451 696.116L868.402 686.595L849.353 696.116L830.303 686.595L811.254 696.116L792.205 686.595L773.156 696.116L754.107 686.595L735.058 696.116L716.009 686.595L696.959 696.116L677.91 686.595L658.861 696.116L639.812 686.595L620.763 696.116L601.714 686.595L585.386 694.756V469.184L563.687 458.303L544.638 467.824L528.31 459.663V421.22H547.359V255.138L525.66 244.256L506.611 253.777L490.283 245.617V135.229H480.615C479.255 84.1868 440.512 55.7666 433.207 50.8271V45.1001C436.072 44.0263 438.149 41.2344 438.149 38.0129C438.149 34.7915 436.072 31.9996 433.207 30.9258V24.1966C436.072 23.1227 438.149 20.3308 438.149 17.1094C438.149 13.888 436.072 11.096 433.207 10.0222V0H427.836V10.0222C424.972 11.096 422.895 13.888 422.895 17.1094C422.895 20.3308 424.972 23.1227 427.836 24.1966V30.9258C424.972 31.9996 422.895 34.7915 422.895 38.0129C422.895 41.2344 424.972 44.0263 427.836 45.1001V50.8271C420.46 55.7666 381.789 84.1152 380.428 135.229H370.76V254.135H313.685V421.22H332.734V468.182H275.658V1024.63H-7V1030H1211V1024.63H928.199ZM504.105 258.502V275.898H509.476V258.502L525.803 250.341L542.131 258.502V415.851H395.324V258.502L411.652 250.341L427.98 258.502V275.898H433.351V258.502L449.678 250.341L466.006 258.502V275.898H471.377V258.502L487.705 250.341L504.105 258.502ZM485.127 140.598V245.617L468.799 253.777L449.75 244.256L433.422 252.417V140.598H485.127ZM430.701 55.5518C438.292 60.7061 474.099 87.623 475.459 135.3H385.943C387.303 87.5514 423.11 60.6345 430.701 55.5518ZM319.199 415.851V259.504H389.953V415.851H319.199ZM389.953 421.22V468.182H338.248V421.22H389.953ZM389.953 1024.63H281.101V473.551H389.953V1024.63ZM376.275 254.135V140.598H427.98V252.489L411.652 244.328L392.03 254.135H376.275ZM395.324 421.22H523.154V459.663L506.826 467.824L487.777 458.303L468.728 467.824L449.678 458.303L430.629 467.824L411.58 458.303L395.252 466.464V421.22H395.324ZM504.176 1024.63H395.324V472.549L411.652 464.388L427.98 472.549V504.19H433.351V472.549L449.678 464.388L466.006 472.549V504.19H471.377V472.549L487.705 464.388L504.033 472.549V504.19H509.404V472.549L525.732 464.388L542.06 472.549V504.19H547.431V472.549L563.758 464.388L580.086 472.549V694.828L563.758 686.667L544.709 696.188L525.66 686.667L503.961 697.548V1024.63H504.176ZM633.295 1024.63C634.513 928.417 699.824 908.23 706.699 906.44C709.993 907.299 726.679 912.31 743.15 927.558C766.854 949.536 779.458 983.039 780.031 1024.63H633.295ZM837.178 1024.63H785.402C784.113 918.109 707.415 901 706.627 901L706.054 901.071C705.267 901.214 686.074 905.581 666.739 923.406C649.265 939.513 628.569 970.153 627.852 1024.63H576.076V795.909L592.404 787.748L608.732 795.909V827.551H614.103V795.909L630.43 787.748L646.758 795.909V827.551H652.129V795.909L668.457 787.748L684.785 795.909V827.551H690.156V795.909L706.484 787.748L722.812 795.909V827.551H728.183V795.909L744.511 787.748L760.838 795.909V827.551H766.209V795.909L782.537 787.748L798.865 795.909V827.551H804.236V795.909L820.564 787.748L836.892 795.909V1024.63H837.178ZM922.828 1024.63H842.549V792.616L820.85 781.735L801.801 791.256L782.752 781.735L763.703 791.256L744.654 781.735L725.605 791.256L706.555 781.735L687.506 791.256L668.457 781.735L649.408 791.256L630.359 781.735L611.31 791.256L592.261 781.735L570.562 792.616V1024.63H509.332V700.769L525.66 692.608L541.988 700.769V732.411H547.359V700.769L563.687 692.608L580.015 700.769V732.411H585.386V700.769L601.714 692.608L618.041 700.769V732.411H623.412V700.769L639.74 692.608L656.068 700.769V732.411H661.439V700.769L677.767 692.608L694.095 700.769V732.411H699.466V700.769L715.794 692.608L732.122 700.769V732.411H737.493V700.769L753.82 692.608L770.148 700.769V732.411H775.519V700.769L791.847 692.608L808.175 700.769V732.411H813.546V700.769L829.874 692.608L846.202 700.769V732.411H851.573V700.769L867.9 692.608L884.228 700.769V732.411H889.599V700.769L905.927 692.608L922.255 700.769V1024.63H922.828Z" fill="white"/>
</svg>
