<svg width="159" height="12" viewBox="0 0 159 12" fill="none" xmlns="http://www.w3.org/2000/svg">
<path d="M4.23372 0.736445H0V11.6231H1.94472V8.02216H4.14997C6.35523 8.02216 7.89984 6.55199 7.89984 4.37465C7.89984 2.19731 6.40175 0.736445 4.23372 0.736445ZM3.71264 6.45894H1.94472V2.32758H3.72195C5.11768 2.32758 5.9272 3.07197 5.9272 4.38395C5.9272 5.70525 5.10837 6.45894 3.71264 6.45894ZM11.231 5.02599H11.1938V3.63026H9.38861V11.6324H11.2682V6.98001C11.2682 5.85413 11.9102 5.16556 12.971 5.16556C13.2874 5.16556 13.5758 5.21209 13.734 5.26792V3.56513C13.5944 3.53721 13.3897 3.49069 13.1478 3.49069C12.208 3.49069 11.5101 4.04898 11.231 5.02599ZM15.9485 0.531738C15.3716 0.531738 14.9064 0.987677 14.9064 1.55527C14.9064 2.12287 15.3623 2.57881 15.9485 2.57881C16.5348 2.57881 17 2.12287 17 1.55527C17 0.987677 16.5348 0.531738 15.9485 0.531738ZM15.0088 11.6324H16.8883V3.63026H15.0088V11.6324ZM27.6262 3.48138C26.4724 3.48138 25.5233 4.10481 25.1325 5.09113H25.0859C24.7882 4.06759 23.988 3.48138 22.8528 3.48138C21.7641 3.48138 20.9174 4.0955 20.5731 5.01669H20.5359V3.63026H18.7307V11.6324H20.6103V6.73809C20.6103 5.77038 21.243 5.07252 22.1456 5.07252C23.0203 5.07252 23.5599 5.6215 23.5599 6.51477V11.6418H25.3837V6.70087C25.3837 5.74247 26.0071 5.08182 26.9097 5.08182C27.8309 5.08182 28.3426 5.64011 28.3426 6.61712V11.6418H30.2222V6.15188C30.2315 4.54214 29.1987 3.48138 27.6262 3.48138ZM35.4329 3.46277C33.1253 3.46277 31.6552 5.12835 31.6552 7.65927C31.6552 10.2088 33.1067 11.7906 35.5074 11.7906C37.4056 11.7906 38.8013 10.7485 39.0432 9.2411H37.2846C37.0799 9.90174 36.4193 10.3391 35.5446 10.3391C34.3164 10.3391 33.5254 9.48303 33.5254 8.19895V8.0873H39.1177V7.47317C39.127 5.0353 37.7033 3.46277 35.4329 3.46277ZM33.5534 6.84044C33.6278 5.72386 34.3908 4.91433 35.4516 4.91433C36.5309 4.91433 37.2567 5.70525 37.2939 6.84044H33.5534ZM49.7904 8.95265H49.7345L46.3941 0.736445H44.133V11.6231H45.8916V3.8908H45.9475L49.0925 11.5301H50.4231L53.5681 3.8908H53.624V11.6231H55.3733V0.736445H53.1308L49.7904 8.95265ZM57.4204 11.6324H59.2999V3.63026H57.4204V11.6324ZM58.3508 0.531738C57.7739 0.531738 57.3087 0.987677 57.3087 1.55527C57.3087 2.12287 57.7646 2.57881 58.3508 2.57881C58.9371 2.57881 59.4023 2.12287 59.4023 1.55527C59.4023 0.987677 58.9464 0.531738 58.3508 0.531738ZM65.4877 3.48138C64.2594 3.48138 63.4034 4.05828 62.9754 5.00738H62.9381V3.63026H61.133V11.6324H63.0126V6.99863C63.0126 5.85413 63.7011 5.07252 64.7805 5.07252C65.8506 5.07252 66.3809 5.70525 66.3809 6.84044V11.6324H68.2605V6.45894C68.2605 4.60727 67.2556 3.48138 65.4877 3.48138ZM70.0657 11.6324H71.9453V3.63026H70.0657V11.6324ZM71.0055 0.531738C70.4286 0.531738 69.9633 0.987677 69.9633 1.55527C69.9633 2.12287 70.4193 2.57881 71.0055 2.57881C71.5917 2.57881 72.0569 2.12287 72.0569 1.55527C72.0569 0.987677 71.5917 0.531738 71.0055 0.531738ZM78.04 7.07306L76.6163 6.7567C75.8347 6.5706 75.4718 6.26354 75.4718 5.81691C75.4718 5.24 76.0115 4.83989 76.8489 4.83989C77.7236 4.83989 78.2726 5.25861 78.3377 5.94717H80.087C80.0405 4.4677 78.7657 3.45347 76.8861 3.45347C74.9414 3.45347 73.6481 4.44909 73.6481 5.90996C73.6481 7.06376 74.3924 7.83606 75.8719 8.18034L77.3328 8.52462C78.1144 8.72002 78.4028 8.97126 78.4028 9.4365C78.4028 10.032 77.8352 10.4042 76.9234 10.4042C75.9743 10.4042 75.4067 9.99479 75.295 9.26901H73.4433C73.5736 10.7857 74.8484 11.7813 76.8582 11.7813C78.8774 11.7813 80.2731 10.7578 80.2731 9.2504C80.2731 8.07799 79.6404 7.45456 78.04 7.07306ZM84.1346 1.75998H82.2551V3.63026H81.1106V5.08182H82.2551V9.50164C82.2551 11.0555 82.9343 11.6697 84.665 11.6697C85.0651 11.6697 85.4373 11.6418 85.642 11.5952V10.1623C85.5211 10.1809 85.2791 10.1995 85.1023 10.1995C84.4417 10.1995 84.1346 9.90174 84.1346 9.2411V5.08182H85.642V3.63026H84.1346V1.75998ZM90.4713 3.46277C88.1637 3.46277 86.6935 5.12835 86.6935 7.65927C86.6935 10.2088 88.145 11.7906 90.5457 11.7906C92.4439 11.7906 93.8396 10.7485 94.0816 9.2411H92.3229C92.1182 9.90174 91.4576 10.3391 90.5829 10.3391C89.3547 10.3391 88.5638 9.48303 88.5638 8.19895V8.0873H94.156V7.47317C94.156 5.0353 92.7417 3.46277 90.4713 3.46277ZM88.5824 6.84044C88.6568 5.72386 89.4198 4.91433 90.4806 4.91433C91.5599 4.91433 92.2857 5.70525 92.3229 6.84044H88.5824ZM97.4685 5.02599H97.4313V3.63026H95.6262V11.6324H97.5057V6.98001C97.5057 5.85413 98.1478 5.16556 99.2085 5.16556C99.5249 5.16556 99.8134 5.21209 99.9715 5.26792V3.56513C99.832 3.53721 99.6273 3.49069 99.3853 3.49069C98.4362 3.49069 97.7384 4.04898 97.4685 5.02599ZM101.544 4.83989H102.996L104.019 0.74575H102.177L101.544 4.83989ZM109.174 7.07306L107.75 6.7567C106.969 6.5706 106.606 6.26354 106.606 5.81691C106.606 5.24 107.146 4.83989 107.983 4.83989C108.858 4.83989 109.407 5.25861 109.472 5.94717H111.221C111.175 4.4677 109.9 3.45347 108.02 3.45347C106.076 3.45347 104.782 4.44909 104.782 5.90996C104.782 7.06376 105.527 7.83606 107.006 8.18034L108.467 8.52462C109.248 8.72002 109.537 8.97126 109.537 9.4365C109.537 10.032 108.969 10.4042 108.057 10.4042C107.108 10.4042 106.541 9.99479 106.429 9.26901H104.577C104.708 10.7857 105.982 11.7813 107.992 11.7813C110.011 11.7813 111.407 10.7578 111.407 9.2504C111.398 8.07799 110.774 7.45456 109.174 7.07306ZM121.205 0.559654C118.032 0.559654 116.032 2.72769 116.032 6.1891C116.032 9.65051 118.023 11.8092 121.205 11.8092C124.378 11.8092 126.369 9.65051 126.369 6.1891C126.369 2.71838 124.378 0.559654 121.205 0.559654ZM121.205 10.153C119.261 10.153 118.032 8.61767 118.032 6.1891C118.032 3.76053 119.261 2.21592 121.205 2.21592C123.141 2.21592 124.378 3.75122 124.378 6.1891C124.388 8.60837 123.15 10.153 121.205 10.153ZM128.51 2.9417V3.64887H127.412V5.07252H128.51V11.6231H130.389V5.07252H131.962V3.64887H130.361V2.98822C130.361 2.33688 130.687 2.00191 131.403 2.00191C131.617 2.00191 131.841 2.02052 131.999 2.04843V0.736445C131.766 0.68992 131.357 0.652701 130.985 0.652701C129.245 0.652701 128.51 1.38779 128.51 2.9417ZM133.981 2.9417V3.64887H132.883V5.07252H133.981V11.6231H135.86V5.07252H137.433V3.64887H135.833V2.98822C135.833 2.33688 136.158 2.00191 136.875 2.00191C137.089 2.00191 137.312 2.02052 137.47 2.04843V0.736445C137.238 0.68992 136.828 0.652701 136.456 0.652701C134.716 0.652701 133.981 1.38779 133.981 2.9417ZM138.968 11.6324H140.848V3.63026H138.968V11.6324ZM139.908 0.531738C139.331 0.531738 138.866 0.987677 138.866 1.55527C138.866 2.12287 139.322 2.57881 139.908 2.57881C140.494 2.57881 140.959 2.12287 140.959 1.55527C140.959 0.987677 140.494 0.531738 139.908 0.531738ZM146.226 10.2739C145.035 10.2739 144.263 9.30623 144.263 7.63135C144.263 5.98439 145.026 4.98877 146.207 4.98877C147.212 4.98877 147.808 5.63081 147.957 6.48686H149.734C149.604 4.80267 148.301 3.46277 146.189 3.46277C143.863 3.46277 142.355 5.07252 142.355 7.63135C142.355 10.2274 143.863 11.7906 146.207 11.7906C148.217 11.7906 149.594 10.6089 149.743 8.82238H147.966C147.799 9.72495 147.184 10.2739 146.226 10.2739ZM158.257 8.07799V7.46387C158.257 5.0353 156.843 3.45347 154.563 3.45347C152.256 3.45347 150.785 5.11904 150.785 7.64997C150.785 10.1995 152.237 11.7813 154.638 11.7813C156.536 11.7813 157.932 10.7392 158.174 9.23179H156.415C156.21 9.89244 155.55 10.3298 154.675 10.3298C153.447 10.3298 152.656 9.47372 152.656 8.18965V8.07799H158.257ZM154.573 4.92364C155.652 4.92364 156.378 5.71455 156.415 6.84975H152.684C152.758 5.72386 153.512 4.92364 154.573 4.92364Z" fill="#4E9FBF"/>
</svg>
