<svg width="159" height="16" viewBox="0 0 159 16" fill="none" xmlns="http://www.w3.org/2000/svg">
<path d="M2.36344 8.98851C2.36344 8.14176 2.96825 7.58347 3.90805 7.58347C4.15928 7.58347 4.52217 7.62999 5.02463 7.74165L5.36891 6.24357C4.89436 6.08539 4.34538 6.01095 3.74986 6.01095C2.83799 6.01095 2.11221 6.27148 1.55391 6.78325C0.977011 7.29502 0.697865 7.95567 0.697865 8.77449C0.697865 9.31418 0.837438 9.82594 1.13519 10.3005H0V11.78H5.65736V10.3005H2.83799C2.52162 9.91899 2.36344 9.47236 2.36344 8.98851ZM7.4439 11.7893H9.26765V0.111658H7.4439V11.7893ZM11.9195 11.0728C11.9195 12.3569 11.3799 12.8314 9.9376 13.0361L10.2167 14.6086C12.6453 14.4412 13.7433 13.185 13.7433 10.7006V5.33169H11.9195V11.0728ZM16.5906 2.54953C16.4975 3.41489 17.7351 3.86152 18.2748 3.2567C18.6284 2.88451 18.6284 2.20525 18.2748 1.83306C17.7258 1.26546 16.4975 1.66557 16.5906 2.54953ZM16.665 11.0728C16.665 12.3569 16.1253 12.8314 14.6831 13.0361L14.9622 14.6086C17.3908 14.4412 18.4888 13.185 18.4888 10.7006V5.33169H16.665V11.0728ZM29.6081 8.34647C29.6081 9.7515 29.3103 10.1516 28.0914 10.1516H26.9004V8.30925C26.9004 6.45758 25.7559 5.1549 23.7367 5.1549C22.7318 5.1549 21.8944 5.49918 21.2616 6.15982C20.6289 6.83908 20.3032 7.65791 20.3032 8.63492C20.3032 10.5517 21.6338 11.7893 24.0438 11.7893H25.0301C24.8254 12.7477 23.6437 13.1478 21.4756 12.9803L21.5873 14.618C21.8851 14.6366 22.1921 14.6459 22.4806 14.6459C25.1232 14.6459 26.5747 13.6875 26.8539 11.7893H28.0914C30.3897 11.7893 31.4226 10.9704 31.4226 8.72797V0.111658H29.5988V8.34647H29.6081ZM25.0859 10.1516H24.1275C22.8342 10.1516 22.1828 9.59332 22.1828 8.49535C22.1828 7.51834 22.7969 6.83908 23.6809 6.83908C24.6207 6.83908 25.0859 7.4532 25.0859 8.68144V10.1516ZM33.4696 11.7893H35.2934V0.111658H33.4696V11.7893ZM67.2091 13.3339C67.023 13.52 66.9299 13.7526 66.9299 14.041C66.9299 14.5993 67.3487 15.0181 67.9163 15.0181C68.4838 15.0181 68.8746 14.5993 68.8746 14.041C68.977 13.1478 67.786 12.7011 67.2091 13.3339ZM77.156 5.1549C76.1045 5.1549 75.2392 5.46196 74.5599 6.06678C73.8807 6.67159 73.5364 7.4532 73.5364 8.4116C73.5364 9.07225 73.6946 9.66776 74.0016 10.1423H71.4428C71.7033 7.03448 70.41 5.1549 67.3021 5.1549C66.5484 5.1549 65.832 5.27586 65.1899 5.50848L65.59 7.05309C66.1576 6.91352 66.688 6.83908 67.1533 6.83908C69.5632 6.83908 69.8238 8.7838 69.5911 10.1423H64.7991C63.7011 10.1423 63.1429 9.62124 63.1429 8.57909V0.111658H61.3191V8.34647C61.3191 9.7515 61.0306 10.1516 59.8117 10.1516C58.7137 10.1516 58.1647 9.62124 58.1647 8.5884V5.33169H56.341V8.57909C56.341 9.70498 56.0618 10.1516 55.0941 10.1516C54.2567 10.1516 53.8473 9.80733 53.8473 9.11877V6.45758H52.0142V8.61631C52.0142 9.7422 51.6699 10.1423 50.7302 10.1423C49.9299 10.1423 49.5298 9.79803 49.5298 9.10947V6.45758H47.7061V10.1981C47.7061 12.0684 46.8593 12.8128 45.2496 12.8128C43.705 12.8128 42.7931 11.994 42.7931 10.4959C42.7931 9.89108 42.9513 9.21182 43.2397 8.43952L41.6486 7.88123C41.1834 8.91407 40.9507 9.86316 40.9507 10.7378C40.9507 11.7707 41.3229 12.6546 42.0487 13.399C42.7745 14.1248 43.8259 14.497 45.2031 14.497C47.5386 14.497 49.139 13.4921 49.4647 11.4729C49.8462 11.7055 50.3487 11.8172 50.9628 11.8172C51.9398 11.8172 52.6749 11.566 53.1866 11.0914C53.6984 11.566 54.387 11.7986 55.2709 11.7986C56.2759 11.7986 57.0482 11.4915 57.5599 10.8867C57.988 11.4915 58.751 11.7986 59.8117 11.7986C61.133 11.7986 62.0449 11.4915 62.538 10.8867C62.9661 11.4915 63.7291 11.7986 64.7898 11.7986H76.6349C79.6962 11.7986 80.4685 10.0027 80.4685 8.43021C80.4685 7.51834 80.1708 6.74603 79.6032 6.1133C79.0263 5.47126 78.2074 5.1549 77.156 5.1549ZM76.8489 10.1516H75.9091C75.5556 9.65846 75.3881 9.12808 75.3881 8.5884C75.3881 7.47181 76.0673 6.83908 77.0536 6.83908C78.0306 6.83908 78.6448 7.49042 78.6448 8.47674C78.6448 9.59332 78.0399 10.1516 76.8489 10.1516ZM105.992 13.0361C105.433 13.0361 105.005 13.4641 105.005 14.041C105.005 14.5993 105.443 15.0181 105.992 15.0181C106.559 15.0181 106.969 14.5993 106.969 14.041C106.969 13.4735 106.559 13.0361 105.992 13.0361ZM108.523 13.0361C107.955 13.0361 107.518 13.4641 107.518 14.041C107.518 14.5993 107.955 15.0181 108.523 15.0181C109.062 15.0181 109.481 14.5993 109.481 14.041C109.481 13.4735 109.062 13.0361 108.523 13.0361ZM112.496 1.75862C112.496 1.05145 113.38 1.01423 113.966 1.17241L114.171 0.120963C113.78 0.0465244 113.436 0 113.147 0C112.077 0 111.37 0.614121 111.37 1.526C111.37 1.83306 111.444 2.13082 111.603 2.40996H110.951V3.48933H114.348V2.40996H112.71C112.57 2.17734 112.496 1.96333 112.496 1.75862ZM111.984 8.34647C111.984 9.72359 111.631 10.1516 110.393 10.1516H110.086C108.988 10.1516 108.43 9.63054 108.43 8.5884V5.33169H106.606V8.34647C106.606 9.72359 106.252 10.1516 105.015 10.1516H104.708C103.61 10.1516 103.051 9.63054 103.051 8.5884V5.33169H101.228V8.57909C101.228 9.70498 100.949 10.1516 99.9808 10.1516C99.1434 10.1516 98.734 9.80733 98.734 9.11877V6.45758H96.9102V8.61631C96.9102 9.7422 96.5659 10.1423 95.6262 10.1423C94.8259 10.1423 94.4258 9.79803 94.4258 9.10947V6.45758H92.6021V10.1981C92.6021 12.0684 91.7553 12.8128 90.1456 12.8128C88.601 12.8128 87.6891 11.994 87.6891 10.4959C87.6891 9.89108 87.8473 9.21182 88.1357 8.43952L86.5446 7.88123C86.0794 8.91407 85.8467 9.86316 85.8467 10.7378C85.8467 11.7707 86.2189 12.6546 86.9447 13.399C87.6705 14.1248 88.7219 14.497 90.0991 14.497C92.4346 14.497 94.035 13.4921 94.3607 11.4729C94.7422 11.7055 95.2447 11.8172 95.8588 11.8172C96.8358 11.8172 97.5709 11.566 98.0826 11.0914C98.5944 11.566 99.283 11.7986 100.167 11.7986C101.172 11.7986 101.944 11.4915 102.456 10.8867C102.884 11.4915 103.647 11.7986 104.708 11.7986H105.033C106.373 11.7986 107.304 11.4915 107.816 10.8681C108.234 11.4822 108.988 11.7986 110.086 11.7986H110.412C112.803 11.7986 113.808 10.9332 113.808 8.5977V5.341H111.984V8.34647ZM116.664 11.0728C116.664 12.3569 116.125 12.8314 114.683 13.0361L114.962 14.6086C117.39 14.4412 118.488 13.185 118.488 10.7006V5.33169H116.664V11.0728ZM129.635 5.19212C129.989 4.81992 129.989 4.14067 129.635 3.76847C129.096 3.20088 127.858 3.60099 127.951 4.47564C127.858 5.341 129.096 5.79693 129.635 5.19212ZM131.264 10.1981C131.264 12.0684 130.417 12.8128 128.807 12.8128C127.263 12.8128 126.351 11.994 126.351 10.4959C126.351 9.89108 126.509 9.21182 126.797 8.43952L125.206 7.88123C124.741 8.91407 124.508 9.86316 124.508 10.7378C124.508 11.7707 124.881 12.6546 125.606 13.399C126.332 14.1248 127.384 14.497 128.761 14.497C131.403 14.497 133.088 13.2036 133.088 10.6634V6.45758H131.264V10.1981ZM135.116 11.7893H136.94V0.111658H135.116V11.7893ZM149.79 13.0361C149.222 13.0361 148.785 13.4641 148.785 14.041C148.785 14.5993 149.222 15.0181 149.79 15.0181C150.329 15.0181 150.748 14.5993 150.748 14.041C150.748 13.4735 150.329 13.0361 149.79 13.0361ZM147.259 13.0361C146.701 13.0361 146.273 13.4641 146.273 14.041C146.273 14.5993 146.71 15.0181 147.259 15.0181C147.826 15.0181 148.236 14.5993 148.236 14.041C148.236 13.4735 147.826 13.0361 147.259 13.0361ZM150.004 8.5884V5.33169H148.18V8.34647C148.18 9.72359 147.826 10.1516 146.589 10.1516H145.091V8.30925C145.091 6.45758 143.946 5.1549 141.927 5.1549C140.922 5.1549 140.085 5.49918 139.452 6.15982C138.819 6.83908 138.494 7.65791 138.494 8.63492C138.494 10.5517 139.824 11.7893 142.234 11.7893H143.221C143.016 12.7477 141.834 13.1478 139.666 12.9803L139.778 14.618C140.076 14.6366 140.383 14.6459 140.671 14.6459C143.314 14.6459 144.765 13.6875 145.044 11.7893H146.598C149.008 11.7893 150.004 10.9239 150.004 8.5884ZM143.276 10.1516H142.318C141.025 10.1516 140.373 9.59332 140.373 8.49535C140.373 7.51834 140.987 6.83908 141.871 6.83908C142.811 6.83908 143.276 7.4532 143.276 8.68144V10.1516ZM157.531 7.53695C157.038 6.62507 156.108 5.71319 154.749 4.82923L153.651 6.2994C154.377 6.74603 155.028 7.32293 155.596 8.01149C156.154 8.70936 156.433 9.39792 156.433 10.1144V10.1423H151.753V11.78H158.257V10.7471C158.257 9.52819 158.006 8.46743 157.531 7.53695Z" fill="#4E9FBF"/>
</svg>
