<svg width="14" height="14" viewBox="0 0 14 14" fill="none" xmlns="http://www.w3.org/2000/svg">
<path d="M11.1222 10.0333C11.9 8.94444 12.4444 7.62222 12.4444 6.22222C12.4444 2.8 9.64444 0 6.22222 0C2.8 0 0 2.8 0 6.22222C0 9.64444 2.8 12.4444 6.22222 12.4444C7.62222 12.4444 8.94444 11.9778 10.0333 11.1222L12.9111 14L14 12.9111L11.1222 10.0333ZM6.22222 10.8889C3.65556 10.8889 1.55556 8.78889 1.55556 6.22222C1.55556 3.65556 3.65556 1.55556 6.22222 1.55556C8.78889 1.55556 10.8889 3.65556 10.8889 6.22222C10.8889 7.23333 10.5778 8.16667 10.0333 8.94444C9.72222 9.33333 9.33333 9.72222 8.94444 10.0333C8.16667 10.5778 7.23333 10.8889 6.22222 10.8889Z" fill="#4E9FBF"/>
</svg>
